<svg width="32" height="32" viewBox="0 0 32 32" fill="none" xmlns="http://www.w3.org/2000/svg">
  <circle cx="16" cy="16" r="14" fill="url(#g)"/>
  <path d="M16 6C16 6 10 11 10 16C10 21 16 26 16 26C16 26 22 21 22 16C22 11 16 6 16 6Z" fill="white"/>
  <path d="M16 10C16 10 13 13 13 16C13 19 16 22 16 22C16 22 19 19 19 16C19 13 16 10 16 10Z" fill="#F97316"/>
  <circle cx="16" cy="16" r="2" fill="white"/>
  <defs>
    <linearGradient id="g" x1="0" y1="0" x2="32" y2="32" gradientUnits="userSpaceOnUse">
      <stop stopColor="#F97316"/>
      <stop offset="1" stopColor="#EA580C"/>
    </linearGradient>
  </defs>
</svg>
